<svg width="149" height="49" viewBox="0 0 149 49" fill="none" xmlns="http://www.w3.org/2000/svg">
<path d="M126.65 7.53424C127.622 7.53424 128.539 7.16543 129.187 6.48048C129.889 5.79553 130.267 4.95252 130.267 3.95145C130.267 3.00306 129.943 2.16005 129.187 1.42242C128.485 0.73747 127.622 0.368652 126.65 0.368652C125.678 0.368652 124.814 0.73747 124.113 1.42242C123.411 2.10736 123.033 2.95037 123.033 3.95145C123.033 4.89984 123.411 5.79553 124.113 6.48048C124.76 7.21811 125.624 7.53424 126.65 7.53424Z" fill="#1E1E1E"/>
<path d="M145.167 23.7092C144.141 23.7092 143.331 24.078 142.63 24.763C141.928 25.4479 141.55 26.2909 141.55 27.292C141.55 28.1877 141.82 28.978 142.468 29.663C143.062 30.3479 143.817 30.7167 144.735 30.8748H145.221H145.599C145.653 30.8748 145.707 30.8748 145.707 30.9275V30.9802C145.707 30.9802 145.707 30.9802 145.707 31.0329C144.843 31.5071 143.925 31.8232 143.062 31.9813C142.198 32.1393 141.388 32.192 140.632 32.192H140.578C139.768 32.192 139.121 31.9813 138.527 31.5071C137.825 30.8221 137.447 29.7683 137.285 28.2404C137.177 26.7124 137.123 25.0264 137.177 23.1296V20.5479C137.123 18.6511 137.177 16.9651 137.285 15.4372C137.393 13.9092 137.825 12.8554 138.527 12.1705C139.121 11.6963 139.768 11.4855 140.578 11.4855H140.632C141.388 11.4855 142.198 11.5909 143.062 11.6963C143.925 11.8544 144.843 12.1705 145.707 12.6447V12.6974C145.707 12.6974 145.707 12.6974 145.707 12.7501C145.653 12.7501 145.653 12.8028 145.599 12.8028H145.221H144.735C143.817 12.9081 143.062 13.2769 142.468 13.9619C141.874 14.6468 141.55 15.4372 141.55 16.3329C141.55 17.2812 141.928 18.1769 142.63 18.8619C143.331 19.5468 144.195 19.9157 145.167 19.9157C146.139 19.9157 147.056 19.5468 147.704 18.8619C148.406 18.1769 148.784 17.3339 148.784 16.3329C148.784 15.5952 148.568 14.9103 148.082 14.278C147.596 13.6458 147.002 13.0662 146.247 12.592C145.491 12.1178 144.573 11.749 143.601 11.4855C142.576 11.2221 141.55 11.1167 140.47 11.1167C139.013 11.1167 137.555 11.3802 136.205 11.9071C134.856 12.4339 133.668 13.2243 132.642 14.2253C131.617 15.2264 130.861 16.3329 130.321 17.5974V13.9092V12.4866C130.321 12.0651 130.159 11.749 129.889 11.4855C129.619 11.2221 129.295 11.064 128.917 11.064H128.108H122.925H120.927H120.064C119.578 11.064 119.362 10.8533 119.362 10.3791V9.27265H119.416V9.21996V7.21781V7.00705C119.416 6.58555 119.254 6.26942 118.984 6.00598C118.714 5.74254 118.39 5.58447 118.012 5.58447H117.202H111.21V5.79523H111.534C111.966 5.79523 112.236 6.00598 112.236 6.48017V7.16512V9.11458V16.2802C111.75 15.5425 111.21 14.8049 110.562 14.1726C109.537 13.1716 108.349 12.3812 106.999 11.8544C105.65 11.3275 104.246 11.064 102.788 11.064H102.734C101.277 11.064 99.8731 11.3275 98.5775 11.8544C97.2278 12.3812 96.0401 13.1716 95.0144 14.1726C94.3126 14.8576 93.7728 15.5952 93.2869 16.4382C93.2869 15.5425 93.1249 14.7522 92.855 14.0673C92.5851 13.3296 92.1532 12.7501 91.6673 12.3286C91.1815 11.8544 90.5876 11.5382 89.8858 11.3275C89.184 11.1167 88.4822 11.0114 87.7804 11.0114C86.7007 11.0114 85.567 11.2221 84.3253 11.5909C83.4075 11.8017 82.4358 12.2232 81.518 12.7501L81.4641 12.8028C81.3561 12.8028 81.3021 12.7501 81.3021 12.6447V12.4339C81.3021 12.0124 81.1402 11.6963 80.8702 11.4329C80.6003 11.1694 80.2764 11.0114 79.8985 11.0114H79.0887H72.8804V11.3802H73.2043C73.6362 11.3802 73.9061 11.5909 73.9061 12.0651V12.6447V16.3329V28.2931V28.8726V31.5071C73.9061 31.9286 73.6902 32.192 73.2043 32.192H72.8804V32.5608H82.1659V32.1393H81.842C81.3561 32.1393 81.1402 31.9286 81.1402 31.4544V28.82V28.2404V13.6985C81.1402 13.2769 81.3561 13.0135 81.734 12.8554L82.4898 12.5393C83.0836 12.3812 83.6235 12.3286 84.0554 12.4339C84.5952 12.6447 84.9731 12.9081 85.297 13.3823C85.6209 13.8038 85.7829 14.5415 85.7829 15.5952V27.5028V28.0823V31.1909C85.7829 31.5071 85.6749 31.7705 85.405 31.9813C85.1891 32.192 84.9191 32.2974 84.5952 32.2974V32.5608H89.7778H93.5028H94.0967V32.2974C93.7728 32.2974 93.5028 32.192 93.2869 31.9813C93.0709 31.7705 92.963 31.5071 92.963 31.1909V28.7673V28.1877V27.1866C93.4488 27.9769 93.9887 28.7146 94.6905 29.3995C95.7162 30.4006 96.9039 31.1909 98.2536 31.7178C99.6032 32.2447 101.007 32.5081 102.464 32.5081C103.976 32.5081 105.38 32.2447 106.675 31.7178C108.025 31.1909 109.213 30.4006 110.238 29.3995L109.968 29.1361C108.943 30.1372 107.755 30.9275 106.459 31.4017C105.164 31.9286 103.814 32.192 102.464 32.192C102.087 32.192 101.709 32.1393 101.331 31.9813C100.953 31.8759 100.629 31.6651 100.413 31.4017C99.8191 30.8221 99.4412 29.9791 99.2793 28.82C99.1173 27.6608 99.0633 26.3436 99.0093 24.8157V22.1812C99.0633 21.8651 99.2253 21.7071 99.4952 21.7071H102.41H107.323H111.858V26.7124C111.858 27.7662 112.02 28.6619 112.344 29.3468C112.668 30.1372 113.046 30.7167 113.585 31.1909C114.125 31.6651 114.773 31.9813 115.421 32.192C116.123 32.4028 116.879 32.5081 117.634 32.5081C118.606 32.5081 119.632 32.2974 120.658 31.9286C121.143 31.7178 121.575 31.5071 121.953 31.2963C122.277 31.1382 122.601 30.9275 122.871 30.7694V31.5071C122.871 31.9286 122.655 32.192 122.169 32.192H122.007V32.5608H131.293V32.1393H130.969C130.483 32.1393 130.267 31.9286 130.267 31.4544V28.82V28.2404V25.9221C130.807 27.1866 131.617 28.2931 132.588 29.2942C133.614 30.2952 134.802 31.0856 136.151 31.6124C137.501 32.1393 138.905 32.4028 140.416 32.4028C141.496 32.4028 142.522 32.2447 143.547 31.9813C144.573 31.7178 145.437 31.349 146.193 30.8748C146.948 30.4006 147.542 29.8737 148.028 29.2415C148.514 28.6092 148.73 27.9243 148.73 27.1866C148.73 26.2382 148.352 25.3952 147.65 24.6576C147.002 24.078 146.139 23.7092 145.167 23.7092ZM105.973 20.4952V20.6533V20.9694C105.973 21.2329 105.812 21.3909 105.542 21.3909H101.979H99.6572C99.3872 21.3909 99.2253 21.2329 99.2253 20.9694C99.2253 20.7587 99.1713 20.6006 99.2253 20.5479C99.2253 20.4952 99.2253 20.4425 99.2253 20.3899C99.1713 18.5458 99.2253 16.8071 99.3333 15.3318C99.4412 13.8038 99.8731 12.7501 100.575 12.0651C100.845 11.8017 101.115 11.5909 101.493 11.4855C101.871 11.3802 102.248 11.2748 102.626 11.2748C103.004 11.2748 103.382 11.3275 103.706 11.4855C104.03 11.5909 104.354 11.8017 104.624 12.0651C105.218 12.6447 105.596 13.4877 105.758 14.5942C105.919 15.7006 105.973 16.9651 105.973 18.3877V20.4952ZM121.845 30.8221C121.413 30.9802 121.035 31.0329 120.604 30.9275C120.226 30.7167 119.902 30.4533 119.686 29.9791C119.416 29.4522 119.254 28.6619 119.254 27.6608V11.9597C119.254 11.5382 119.47 11.2748 119.956 11.2748H120.819H122.331C122.763 11.2748 123.033 11.4855 123.033 11.9597V12.6447V16.3329V28.2931V28.8726V30.3479C122.655 30.4533 122.277 30.664 121.845 30.8221Z" fill="black"/>
<path d="M75.6876 35.0906C75.1478 33.9314 74.338 32.8777 73.3123 32.0346C72.2865 31.1389 70.9909 30.454 69.5333 29.9271C68.0757 29.4002 66.4021 29.0841 64.5126 28.926C63.7028 28.926 62.8931 28.8734 62.1373 28.8207C61.3275 28.768 60.5177 28.7153 59.7619 28.6099C59.0061 28.5045 58.3583 28.3465 57.8184 28.1884C57.2786 28.0303 56.9007 27.8196 56.6847 27.5035C56.4148 27.082 56.3068 26.6605 56.4688 26.2389C56.5768 25.8174 56.9547 25.4486 57.4945 25.1852C58.3583 25.8174 59.438 26.3443 60.6257 26.7131C61.8134 27.082 63.163 27.2927 64.6206 27.3981C66.1862 27.3981 67.6438 27.1346 68.9394 26.7131C70.2351 26.2916 71.3148 25.6594 72.1786 24.9217C73.0963 24.1841 73.7441 23.3411 74.23 22.34C74.7159 21.3916 74.9318 20.3379 74.9318 19.2314C74.9318 18.125 74.7159 17.0712 74.23 16.1228C73.7441 15.1744 73.0423 14.2787 72.1786 13.5411C71.3148 12.8035 70.1811 12.1712 68.9394 11.7497C67.6438 11.3282 66.2402 11.0648 64.6206 11.0648C63.001 11.0648 61.5434 11.3282 60.3018 11.7497C59.0061 12.1712 57.9264 12.8035 57.0626 13.5411C56.1449 14.2787 55.497 15.1217 55.0112 16.1228C54.5253 17.0712 54.3094 18.125 54.3094 19.2314C54.3094 20.3379 54.5793 21.3916 55.0652 22.3927C55.551 23.3411 56.2528 24.2368 57.1706 24.9744C55.9829 25.2379 55.0112 25.7648 54.1474 26.6078V13.1196V11.9078C54.1474 11.4863 54.3633 11.2228 54.8492 11.2228H55.1731V10.854H49.7206H49.1268H48.317C47.9391 10.854 47.6152 11.0121 47.3452 11.2755C47.0753 11.5389 46.9134 11.8551 46.9134 12.2239V12.4873C46.9134 12.5927 46.8594 12.6454 46.7514 12.6454H46.6434C46.4815 12.54 46.2115 12.382 45.8336 12.2239C45.4557 12.0131 45.0239 11.8551 44.538 11.6443C43.9981 11.4336 43.4043 11.2755 42.7025 11.1174C42.0007 10.9594 41.2989 10.9067 40.5431 10.9067C39.1394 10.9067 37.8978 11.1701 36.7641 11.697C35.6304 12.1712 34.6047 12.9088 33.7409 13.8572C33.255 14.4368 32.8231 15.0691 32.4452 15.754C32.3912 15.0691 32.2833 14.4895 32.0673 14.0153C31.7974 13.383 31.4195 12.8035 30.8797 12.2766C30.3398 11.8024 29.746 11.4863 29.0981 11.2755C28.3963 11.0648 27.6405 10.9594 26.9387 10.9594C25.5891 10.9594 24.2394 11.1701 22.9978 11.6443C21.7561 12.1185 20.6764 12.6454 19.7047 13.2777L19.7586 13.4357C19.4887 12.9615 19.2188 12.5927 18.8409 12.3293C18.355 11.8551 17.7612 11.5389 17.0594 11.3282C16.3575 11.1174 15.6557 11.0121 14.9539 11.0121C13.8742 11.0121 12.7405 11.2228 11.4989 11.5916C10.5811 11.8024 9.60936 12.2239 8.69161 12.7508L8.63762 12.8035C8.52965 12.8035 8.47566 12.7508 8.47566 12.6454V12.4346C8.47566 12.0131 8.31371 11.697 8.04378 11.4336C7.77385 11.1701 7.44994 11.0121 7.07204 11.0121H6.26226H0.323853V11.3809H0.647766C1.07965 11.3809 1.34958 11.5916 1.34958 12.0658V12.6454V16.3336V28.2938V28.8734V31.5078C1.29559 31.9293 1.07965 32.14 0.647766 32.14H0.323853V32.5088H9.66335V32.14H9.33943C8.85356 32.14 8.63762 31.9293 8.63762 31.4551V28.8207V28.2411V13.6992C8.63762 13.2777 8.85356 13.0142 9.23146 12.8562L10.0412 12.54C10.6351 12.382 11.1749 12.3293 11.6068 12.4346C12.1467 12.6454 12.5246 12.9088 12.8485 13.383C13.1724 13.8045 13.3344 14.5422 13.3344 15.5959V27.5035V28.083V31.1916C13.3344 31.5078 13.2264 31.7712 12.9565 31.982C12.7405 32.1927 12.4706 32.2981 12.1467 32.2981V32.5615H17.3293H21.0543H21.5941V32.2981C21.2702 32.2981 21.0003 32.1927 20.7844 31.982C20.5684 31.7712 20.4605 31.5078 20.4605 31.1916V28.768V28.1884V16.597C20.4605 15.5959 20.2985 14.7002 19.9746 14.0153C19.9206 13.8572 19.8666 13.7519 19.8126 13.6465C20.2985 13.1723 20.8383 12.8562 21.4322 12.6454C22.026 12.4873 22.4579 12.382 22.7818 12.382C22.8898 12.382 22.9978 12.382 23.1057 12.382C23.2137 12.382 23.3217 12.382 23.4297 12.382C23.9155 12.5927 24.3474 12.8562 24.6713 13.3303C24.9952 13.8045 25.1572 14.5422 25.1572 15.5433V27.4508V28.0303V31.1389C25.1572 31.4551 25.0492 31.7185 24.8333 31.9293C24.6173 32.14 24.3474 32.2454 24.0235 32.2454V32.5088H29.2061H32.9851H33.5789V32.2454C33.255 32.2454 32.9851 32.14 32.7691 31.9293C32.5532 31.7185 32.4452 31.4551 32.4452 31.1389V28.7153V28.1357V27.5562C32.8771 28.3465 33.363 29.0314 33.9568 29.6637C34.8746 30.6121 36.0083 31.3497 37.3039 31.7712C38.5456 32.2981 39.9492 32.5088 41.6228 32.4562C42.2166 32.4562 42.7565 32.3508 43.2423 32.1927C43.7282 32.0346 44.2141 31.8766 44.646 31.6131C45.4018 31.2443 45.9956 30.7701 46.5894 30.2432C46.5894 30.2432 46.6974 30.1906 46.7514 30.1906C46.8594 30.1906 46.9134 30.2432 46.9134 30.3486V31.0863C46.9134 31.4551 47.0753 31.7712 47.3452 32.0346C47.6152 32.2981 47.9391 32.4562 48.317 32.4562H49.5586H53.1217C53.2836 32.7723 53.4456 33.0357 53.6615 33.3518C54.3094 34.2475 55.1731 34.9325 56.1989 35.354C57.0086 35.7228 57.9804 35.9336 59.0601 36.1443C60.1398 36.3024 61.2735 36.4605 62.4072 36.5658C63.5409 36.6712 64.7286 36.7766 65.9163 36.9346C67.1039 37.04 68.1836 37.2508 69.1554 37.5142C70.1811 37.7777 71.0989 38.3045 71.8007 39.0949C72.5025 39.8852 72.8804 40.8336 72.8804 41.94C72.8804 42.7303 72.7184 43.468 72.4485 44.2583C72.1786 45.0486 71.6927 45.7336 71.0449 46.3658C70.397 46.9981 69.5873 47.525 68.5076 47.8938C67.4278 48.2626 66.1322 48.4734 64.6206 48.4734C63.3249 48.4734 62.0293 48.3153 60.8416 48.0518C59.6539 47.7884 58.5742 47.3669 57.6025 46.8927C56.6307 46.3658 55.767 45.7863 55.0652 45.1013C54.3633 44.4164 53.8235 43.6787 53.4996 42.8884C54.2014 43.7841 55.1731 44.2056 56.3068 44.2056C57.2786 44.2056 58.1423 43.8368 58.8442 43.1519C59.546 42.4669 59.9239 41.6239 59.9239 40.6228C59.9239 39.6217 59.546 38.7787 58.8442 38.0938C58.1423 37.4088 57.2786 37.04 56.3068 37.04C55.3351 37.04 54.4173 37.4088 53.7695 38.0938C53.0677 38.7787 52.6898 39.6217 52.6898 40.6228V40.6755C52.6898 41.782 53.0137 42.8357 53.6076 43.8368C54.2014 44.7852 55.0652 45.6809 56.1449 46.4185C57.2246 47.1561 58.5202 47.7884 59.9778 48.1572C61.4355 48.5787 63.001 48.7895 64.6206 48.7895C66.2942 48.7895 67.8057 48.5787 69.2634 48.1045C70.721 47.6303 72.0166 46.9981 73.0963 46.1024C74.176 45.2594 75.0398 44.2056 75.6336 42.9411C76.2275 41.6766 76.5514 40.3067 76.5514 38.7787C76.4974 37.5669 76.2275 36.2497 75.6876 35.0906ZM61.6514 19.126V17.0185C61.6514 13.1723 62.6231 11.2755 64.5666 11.2755C66.5101 11.2755 67.5358 13.1723 67.5358 17.0185V19.126V21.2336C67.5358 25.0271 66.5641 26.9239 64.5666 26.9239C62.6231 26.9239 61.6514 25.0271 61.6514 21.2336V19.126ZM46.9134 14.7002V28.7153C46.9134 29.1895 46.6974 29.7164 46.3195 30.1906C45.9416 30.5594 45.6177 30.7701 45.3478 30.9809C44.8619 31.297 44.2681 31.5078 43.6742 31.5605C42.3246 31.7185 41.2449 30.9809 40.4351 29.2949C40.0032 28.4519 39.7333 27.4508 39.5173 26.2389C39.3014 25.0271 39.2474 23.5519 39.3014 21.7605C39.3014 20.9174 39.4094 20.1271 39.4094 19.4949C39.4633 18.8626 39.5173 18.2303 39.6793 17.5981C39.9492 16.3336 40.2731 15.3852 40.651 14.6476C40.9749 13.9099 41.4608 13.3303 42.0547 12.9615C42.5945 12.6981 43.1344 12.4873 43.7822 12.382C44.43 12.382 44.9699 12.4346 45.4557 12.5927C45.9416 12.7508 46.2115 12.8562 46.3195 12.9615C46.5894 13.0669 46.7514 13.225 46.8054 13.4357C46.8594 13.6465 46.9134 13.8572 46.9134 14.1207V14.7002Z" fill="#C91E46"/>
</svg>
